<?xml version="1.0" encoding="UTF-8" standalone="no"?>
<svg width="412px" height="324px" viewBox="0 0 412 324" version="1.1" xmlns="http://www.w3.org/2000/svg" xmlns:xlink="http://www.w3.org/1999/xlink" xmlns:sketch="http://www.bohemiancoding.com/sketch/ns">
    <!-- Generator: Sketch 3.0.3 (7891) - http://www.bohemiancoding.com/sketch -->
    <title>Slice 1</title>
    <desc>Created with Sketch.</desc>
    <defs></defs>
    <g id="Page-1" stroke="none" stroke-width="1" fill="none" fill-rule="evenodd" sketch:type="MSPage">
        <path d="M323.223,48.573 L285.971,85.826 C265.746,65.602 237.809,53.095 206.95,53.095 C145.231,53.095 95.198,103.151 95.198,164.871 C95.198,164.887 95.198,164.855 95.198,164.871 L138.61,164.871 L69.268,234.186 L0,164.871 L42.514,164.871 C42.514,164.863 42.514,164.877 42.514,164.871 C42.514,74.055 116.135,0.411 206.95,0.411 C252.357,0.411 293.467,18.816 323.223,48.573 L323.223,48.573 Z M412,159.129 L342.732,89.813 L273.39,159.129 L316.802,159.129 C316.802,159.145 316.802,159.112 316.802,159.129 C316.802,220.849 266.769,270.905 205.05,270.905 C174.191,270.905 146.253,258.397 126.029,238.174 L88.777,275.427 C118.535,305.184 159.644,323.589 205.05,323.589 C295.864,323.589 369.486,249.945 369.486,159.13 C369.486,159.123 369.486,159.138 369.486,159.13 L412,159.13 L412,159.129 Z" id="refresh-3-icon" fill="#000000" sketch:type="MSShapeGroup"></path>
    </g>
</svg>