<?xml version="1.0" encoding="utf-8"?>

<!-- License Agreement at http://iconmonstr.com/license/ -->

<!DOCTYPE svg PUBLIC "-//W3C//DTD SVG 1.1//EN" "http://www.w3.org/Graphics/SVG/1.1/DTD/svg11.dtd">
<svg version="1.1" xmlns="http://www.w3.org/2000/svg" xmlns:xlink="http://www.w3.org/1999/xlink" x="0px" y="0px"
	 width="512px" height="512px" viewBox="0 0 512 512" enable-background="new 0 0 512 512" xml:space="preserve">
<path id="menu-7-icon" d="M153.415,256c0,28.558-23.15,51.708-51.707,51.708C73.15,307.708,50,284.558,50,256
	s23.15-51.708,51.708-51.708C130.265,204.292,153.415,227.442,153.415,256z M256,204.292c-28.558,0-51.708,23.15-51.708,51.708
	s23.15,51.708,51.708,51.708s51.708-23.15,51.708-51.708S284.558,204.292,256,204.292z M410.292,204.292
	c-28.557,0-51.707,23.15-51.707,51.708s23.15,51.708,51.707,51.708C438.85,307.708,462,284.558,462,256
	S438.85,204.292,410.292,204.292z"/>
</svg>
