<?xml version="1.0" ?>
<svg height="52px" version="1.1" viewBox="0 0 52 52" width="52px" xmlns="http://www.w3.org/2000/svg" xmlns:sketch="http://www.bohemiancoding.com/sketch/ns" xmlns:xlink="http://www.w3.org/1999/xlink">
	<title/>
	<description/>
	<defs/>
	<g fill="none" fill-rule="evenodd" id="black" stroke="none" stroke-width="1">
		<!-- <g fill="#4086CD" id="color" transform="translate(0.000000, -350.000000)">
			<circle cx="26" cy="376" d="M26,402 C40.3594042,402 52,390.359404 52,376 C52,361.640596 40.3594042,350 26,350 C11.6405958,350 0,361.640596 0,376 C0,390.359404 11.6405958,402 26,402 Z M26,402" id="cloudapp" r="26"/>
		</g> -->
			
		<g fill="#292c34" id="Icon" transform="translate(10.000000, -339.000000)">
			<path d="M6.79928889,374.980369 L6.79715556,374.987815 L6.96071111,374.987815 C7.04533333,374.990862 7.12888889,375 7.21422222,375 C7.30026667,375 7.38346667,374.990862 7.46808889,374.987815 L23.5047111,374.987815 L23.5047111,374.983415 C23.6220444,374.987815 23.7365333,375 23.8545778,375 C28.3530667,375 32,371.500646 32,367.183569 C32,362.866492 28.3530667,359.367138 23.8545778,359.367138 C23.6888889,359.367138 23.5264,359.381354 23.3628444,359.390831 C22.6638222,355.756092 19.3496889,353 15.3592889,353 C10.8611556,353 7.21422222,356.499692 7.21422222,360.816769 C7.21422222,360.930154 7.22702222,361.041508 7.232,361.153877 C7.22595556,361.153877 7.22062222,361.1532 7.21422222,361.1532 C3.23022222,361.1532 0,364.252492 0,368.076431 C0,371.766 3.00942222,374.772892 6.79928889,374.980369 L6.79928889,374.980369 Z M6.79928889,374.980369" id="cloudapp"/>
		</g>
	</g>
</svg>